<svg viewBox="0 0 12 20" fill="none" xmlns="http://www.w3.org/2000/svg">
<path d="M5.80048 10.1344C8.32461 10.1344 10.4281 8.031 10.4281 5.50687C10.4281 2.98273 8.32461 0.879272 5.80048 0.879272C3.27634 0.879272 1.17289 2.98273 1.17289 5.50687C1.17289 8.031 3.27634 10.1344 5.80048 10.1344ZM5.80048 3.19308C7.06254 3.19308 8.11427 4.2448 8.11427 5.50687C8.11427 6.76893 7.06254 7.82065 5.80048 7.82065C4.53841 7.82065 3.48668 6.76893 3.48668 5.50687C3.48668 4.2448 4.53841 3.19308 5.80048 3.19308ZM11.1643 10.7655C10.9539 10.2396 10.2177 9.81893 9.16599 10.5551C7.90392 11.6069 5.80048 11.6069 5.80048 11.6069C5.80048 11.6069 3.69703 11.6069 2.43496 10.5551C1.48841 9.81893 0.752203 10.2396 0.436686 10.7655C0.0159967 11.712 0.541857 12.1327 1.69875 12.8689C2.6453 13.5 4.01254 13.7103 4.9591 13.8155L4.22289 14.5517C3.17117 15.6034 2.22462 16.55 1.48841 17.2862C1.06772 17.7069 1.06772 18.3379 1.48841 18.7586L1.59358 18.8637C2.01427 19.2844 2.64531 19.2844 3.06599 18.8637L5.80048 16.1293C6.8522 17.181 7.79875 18.1275 8.53496 18.8637C8.95564 19.2844 9.58668 19.2844 10.0074 18.8637L10.1125 18.7586C10.5332 18.3379 10.5332 17.7069 10.1125 17.2862L7.37806 14.5517L6.64185 13.8155C7.48323 13.7103 8.85047 13.5 9.9022 12.8689C11.1643 12.1327 11.6901 11.6069 11.1643 10.7655Z" fill="#536587"/>
</svg>
