<svg viewBox="0 0 74 46" xmlns="http://www.w3.org/2000/svg"><path d="M0 11.136h5.44v34.176h7.04V.512H7.744C6.656 3.52 5.44 6.144 0 6.144v4.992zM23.775 34.56c0 7.168 3.776 11.264 10.688 11.264 6.912 0 10.688-4.096 10.688-11.264v-8.192c0-6.592-2.624-10.24-7.808-10.24-3.136 0-5.312 1.408-6.528 3.968v-8.192c0-4.288 1.408-5.504 3.904-5.504 2.24 0 3.648 1.216 3.648 4.416v1.6h6.656v-1.152C45.023 4.096 41.439 0 34.527 0c-7.296 0-10.752 4.096-10.752 11.648V34.56zm10.688-12.032c2.24 0 3.648 1.216 3.648 4.416v8.064c0 3.2-1.408 4.352-3.648 4.352s-3.648-1.152-3.648-4.352v-8.064c0-3.2 1.408-4.416 3.648-4.416zM65.406 11.776h-4.992v8.64h-8.576v4.992h8.576v8.768h4.992v-8.768h8.576v-4.992h-8.576v-8.64z"/></svg>