<svg viewBox="0 0 19 16" fill="none" xmlns="http://www.w3.org/2000/svg"><path d="M18.172 2.77c-.631.316-1.367.526-2.103.526.736-.42 1.367-1.156 1.577-1.998-.736.42-1.472.736-2.314.842-.63-.737-1.577-1.157-2.629-1.157-1.998 0-3.68 1.577-3.68 3.68 0 .316 0 .527.104.842C6.077 5.4 3.448 3.927 1.66 1.72c-.315.526-.526 1.157-.526 1.788 0 1.262.631 2.419 1.578 3.05-.631 0-1.157-.21-1.683-.42a3.62 3.62 0 002.945 3.575c-.316.105-.631.105-.947.105-.21 0-.42 0-.736-.105a3.502 3.502 0 003.366 2.524c-1.262.947-2.84 1.578-4.523 1.578H.293a9.963 9.963 0 005.574 1.682c6.73 0 10.307-5.574 10.307-10.306v-.421c.946-.631 1.472-1.262 1.998-1.998z" fill="#536587"/></svg>