<svg viewBox="0 0 14 15" fill="none" xmlns="http://www.w3.org/2000/svg"><path d="M12.867 8.24c-.526-.526-.947-.947-1.998-1.052v-.105c.736-.316 1.262-.631 1.577-1.157.421-.526.526-1.052.526-1.788 0-.526-.105-1.052-.42-1.473-.316-.42-.737-.841-1.262-1.051-.526-.21-1.052-.421-1.683-.526C9.08.983 7.819.983 6.557.983H.983V14.55h6.52c1.052 0 1.999-.105 2.735-.21.736-.21 1.367-.421 1.893-.842.526-.315.946-.736 1.157-1.262.315-.526.42-1.052.42-1.788 0-.946-.315-1.683-.84-2.208zM4.98 3.612h1.683c.526 0 1.052.105 1.472.21.421.21.631.526.631 1.157 0 .526-.21.842-.526 1.052-.315.21-.736.315-1.262.315H4.98V3.612zm3.47 7.993c-.315.105-.735.21-1.261.21H4.979v-3.26h2.314c.526 0 .946.105 1.157.21.526.21.736.631.736 1.262.105.842-.21 1.368-.736 1.578z" fill="#536587"/></svg>