<svg viewBox="0 0 195 44" fill="none" xmlns="http://www.w3.org/2000/svg"><g clip-path="url(#clip0)"><path d="M56.348 1.743V0H44.273v1.743h5.832l-8.87 31.381-8.461-31.38h5.257V0H22.589v1.743h4.764l-8.79 31.381-8.46-31.38h5.257V0H0v1.743h3.86L15.279 44h1.971L27.928 6.06l.246-1.41L37.949 44h1.889L51.83 1.743h4.518zm4.435 8.883s-.082 0 0 0c-6.242 0-9.938 3.902-9.938 11.208v6.226c0 7.223 3.696 11.208 9.938 11.208 6.243 0 9.857-3.902 9.94-11.208v-6.226c-.083-7.223-3.697-11.208-9.94-11.208zm5.011 20.59c0 5.977-1.643 6.89-5.093 6.89-3.367 0-5.092-.913-5.092-6.725V18.596c0-5.894 1.725-6.724 5.092-6.724 3.45 0 5.093.913 5.093 6.89v12.453zm51.255-21.088h-1.56l-8.461 27.397H104.4v1.162h7.967v-1.162h-3.778l2.628-8.302h7.229l2.3 8.302h-3.04v1.162h9.611v-1.162h-2.629l-7.639-27.397zm-5.585 17.932l3.368-10.875h.246l2.957 10.875h-6.571zm-11.253 9.381v-25.57h2.628V10.71h-7.392l-7.804 22.166-7.392-22.166h-7.31v1.163h2.546v25.57h-2.465v1.162h7.721V37.44H77.13V13.2l8.707 26.317h1.232l9.118-26.068v23.992h-2.793v1.163h9.775V37.44h-2.957c.164-2.988 0 0 0 0zm41.973-25.57h3.943v18.43l-11.5-19.592h-6.735v1.163h2.382v25.57h-2.382v1.162h7.639V37.44h-4.025V14.28l14.621 24.906v-.083.083h1.232V11.789h2.628v-1.163h-7.803v1.246zm10.76 19.095c-1.478 0-2.628 1.328-2.628 2.989 0 1.66 1.15 2.988 2.628 2.988 1.479 0 2.629-1.328 2.629-2.988s-1.232-2.989-2.629-2.989zm18.975-15.11c0-.082-.082-.082-.082-.165-.165-.167-.247-.333-.411-.416-.329-.249-.904-.415-1.643-.415-1.971 0-2.957.997-3.778 2.325-.575.913-1.15 2.075-1.561 2.74 0-.416-.082-1.163-.575-2.325-.575-1.577-1.15-2.159-1.232-2.159h-4.682v1.163h2.957v18.43h-2.957v1.162h10.678v-1.162h-4.271V22.332c.493-1.162 1.15-2.657 2.218-4.234 1.067-1.328 1.642-1.743 2.217-1.743.247 0 .247 1.245.247 1.826v.332c0 2.657.821 3.404 1.725 3.404.985 0 1.725-.664 1.725-3.404.164-.996-.082-1.992-.575-2.656.082 0 0 0 0 0zm20.699 19.261c-.493 0-.575-.581-.575-.581V15.44h-3.532v15.691c-.082.083-2.3 4.483-5.503 4.483-1.643 0-2.136-.913-2.136-1.91V15.442h-6.571v1.163h3.121v15.275s-.164 4.898 5.175 4.898c3.614 0 5.585-3.32 5.996-3.901v.083c-.082 1.909.575 3.154 1.561 3.154h4.928v-1.162l-2.464.166z" fill="#fff"/></g><defs><clipPath id="clip0"><path fill="#fff" d="M0 0h195v44H0z"/></clipPath></defs></svg>