<svg xmlns="http://www.w3.org/2000/svg" xmlns:xlink="http://www.w3.org/1999/xlink"><defs><clipPath id="clip0"><path fill="#fff" d="M0 0h195v44H0z"/></clipPath></defs><symbol id="arrow-down" viewBox="0 0 64 64"><path d="M32 48.1c-1.3 0-2.4-.5-3.5-1.3L.8 20.7C-.3 19.6-.3 18 .8 17c1.1-1.1 2.7-1.1 3.7 0L32 42.8l27.5-26.1c1.1-1.1 2.7-1.1 3.7 0 1.1 1.1 1.1 2.7 0 3.7L35.5 46.5c-1.1 1.4-2.2 1.6-3.5 1.6z"/></symbol><symbol id="fb" viewBox="0 0 11 20"><path d="M6.71 19.969v-8.73h2.945l.42-3.365H6.71V5.665c0-.946.316-1.682 1.683-1.682h1.788V.933c-.315 0-1.367-.105-2.63-.105-2.629 0-4.416 1.577-4.416 4.522v2.524H.19v3.366h2.945v8.729H6.71z" fill="#536587"/></symbol><symbol id="ok" viewBox="0 0 12 20"><path d="M5.8 10.134c2.525 0 4.628-2.103 4.628-4.627C10.428 2.983 8.325.879 5.8.879c-2.524 0-4.627 2.104-4.627 4.628s2.103 4.627 4.627 4.627zm0-6.94a2.334 2.334 0 012.314 2.313A2.334 2.334 0 015.8 7.82a2.334 2.334 0 01-2.313-2.314A2.334 2.334 0 015.8 3.193zm5.364 7.571c-.21-.525-.946-.946-1.998-.21C7.904 11.607 5.8 11.607 5.8 11.607s-2.103 0-3.365-1.052c-.947-.736-1.683-.315-1.998.21-.421.947.105 1.368 1.262 2.104.946.631 2.314.841 3.26.947l-.736.736-2.735 2.734c-.42.42-.42 1.052 0 1.473l.106.105c.42.42 1.051.42 1.472 0L5.8 16.129l2.735 2.735c.42.42 1.052.42 1.472 0l.106-.105c.42-.421.42-1.052 0-1.473l-2.735-2.734-.736-.736c.841-.106 2.208-.316 3.26-.947 1.262-.736 1.788-1.262 1.262-2.104z" fill="#536587"/></symbol><symbol id="rating" viewBox="0 0 74 46"><path d="M0 11.136h5.44v34.176h7.04V.512H7.744C6.656 3.52 5.44 6.144 0 6.144v4.992zM23.775 34.56c0 7.168 3.776 11.264 10.688 11.264 6.912 0 10.688-4.096 10.688-11.264v-8.192c0-6.592-2.624-10.24-7.808-10.24-3.136 0-5.312 1.408-6.528 3.968v-8.192c0-4.288 1.408-5.504 3.904-5.504 2.24 0 3.648 1.216 3.648 4.416v1.6h6.656v-1.152C45.023 4.096 41.439 0 34.527 0c-7.296 0-10.752 4.096-10.752 11.648V34.56zm10.688-12.032c2.24 0 3.648 1.216 3.648 4.416v8.064c0 3.2-1.408 4.352-3.648 4.352s-3.648-1.152-3.648-4.352v-8.064c0-3.2 1.408-4.416 3.648-4.416zm30.943-10.752h-4.992v8.64h-8.576v4.992h8.576v8.768h4.992v-8.768h8.576v-4.992h-8.576v-8.64z"/></symbol><symbol id="tw" viewBox="0 0 19 16"><path d="M18.172 2.77c-.631.316-1.367.526-2.103.526.736-.42 1.367-1.156 1.577-1.998-.736.42-1.472.736-2.314.842-.63-.737-1.577-1.157-2.629-1.157-1.998 0-3.68 1.577-3.68 3.68 0 .316 0 .527.104.842C6.077 5.4 3.448 3.927 1.66 1.72c-.315.526-.526 1.157-.526 1.788 0 1.262.631 2.419 1.578 3.05-.631 0-1.157-.21-1.683-.42a3.62 3.62 0 002.945 3.575c-.316.105-.631.105-.947.105-.21 0-.42 0-.736-.105a3.502 3.502 0 003.366 2.524c-1.262.947-2.84 1.578-4.523 1.578H.293a9.963 9.963 0 005.574 1.682c6.73 0 10.307-5.574 10.307-10.306V4.77c.946-.631 1.472-1.262 1.998-1.998z" fill="#536587"/></symbol><symbol id="vk" viewBox="0 0 14 15"><path d="M12.867 8.24c-.526-.526-.947-.947-1.998-1.052v-.105c.736-.316 1.262-.631 1.577-1.157.421-.526.526-1.052.526-1.788 0-.526-.105-1.052-.42-1.473-.316-.42-.737-.841-1.262-1.051-.526-.21-1.052-.421-1.683-.526C9.08.983 7.819.983 6.557.983H.983V14.55h6.52c1.052 0 1.999-.105 2.735-.21.736-.21 1.367-.421 1.893-.842.526-.315.946-.736 1.157-1.262.315-.526.42-1.052.42-1.788 0-.946-.315-1.683-.84-2.208zM4.98 3.612h1.683c.526 0 1.052.105 1.472.21.421.21.631.526.631 1.157 0 .526-.21.842-.526 1.052-.315.21-.736.315-1.262.315H4.98V3.612zm3.47 7.993c-.315.105-.735.21-1.261.21h-2.21v-3.26h2.314c.526 0 .946.105 1.157.21.526.21.736.631.736 1.262.105.842-.21 1.368-.736 1.578z" fill="#536587"/></symbol><symbol id="woman" viewBox="0 0 195 44"><g clip-path="url(#clip0)"><path d="M56.348 1.743V0H44.273v1.743h5.832l-8.87 31.381-8.461-31.38h5.257V0H22.589v1.743h4.764l-8.79 31.381-8.46-31.38h5.257V0H0v1.743h3.86L15.279 44h1.971L27.928 6.06l.246-1.41L37.949 44h1.889L51.83 1.743h4.518zm4.435 8.883s-.082 0 0 0c-6.242 0-9.938 3.902-9.938 11.208v6.226c0 7.223 3.696 11.208 9.938 11.208 6.243 0 9.857-3.902 9.94-11.208v-6.226c-.083-7.223-3.697-11.208-9.94-11.208zm5.011 20.59c0 5.977-1.643 6.89-5.093 6.89-3.367 0-5.092-.913-5.092-6.725V18.596c0-5.894 1.725-6.724 5.092-6.724 3.45 0 5.093.913 5.093 6.89v12.453zm51.255-21.088h-1.56l-8.461 27.397H104.4v1.162h7.967v-1.162h-3.778l2.628-8.302h7.229l2.3 8.302h-3.04v1.162h9.611v-1.162h-2.629l-7.639-27.397zm-5.585 17.932l3.368-10.875h.246l2.957 10.875h-6.571zm-11.253 9.381v-25.57h2.628V10.71h-7.392l-7.804 22.166-7.392-22.166h-7.31v1.163h2.546v25.57h-2.465v1.162h7.721V37.44H77.13V13.2l8.707 26.317h1.232l9.118-26.068v23.992h-2.793v1.163h9.775V37.44h-2.957c.164-2.988 0 0 0 0zm41.973-25.57h3.943v18.43l-11.5-19.592h-6.735v1.163h2.382v25.57h-2.382v1.162h7.639V37.44h-4.025V14.28l14.621 24.906v-.083.083h1.232V11.789h2.628v-1.163h-7.803v1.246zm10.76 19.095c-1.478 0-2.628 1.328-2.628 2.989 0 1.66 1.15 2.988 2.628 2.988 1.479 0 2.629-1.328 2.629-2.988s-1.232-2.989-2.629-2.989zm18.975-15.11c0-.082-.082-.082-.082-.165-.165-.167-.247-.333-.411-.416-.329-.249-.904-.415-1.643-.415-1.971 0-2.957.997-3.778 2.325-.575.913-1.15 2.075-1.561 2.74 0-.416-.082-1.163-.575-2.325-.575-1.577-1.15-2.159-1.232-2.159h-4.682v1.163h2.957v18.43h-2.957v1.162h10.678v-1.162h-4.271V22.332c.493-1.162 1.15-2.657 2.218-4.234 1.067-1.328 1.642-1.743 2.217-1.743.247 0 .247 1.245.247 1.826v.332c0 2.657.821 3.404 1.725 3.404.985 0 1.725-.664 1.725-3.404.164-.996-.082-1.992-.575-2.656.082 0 0 0 0 0zm20.699 19.261c-.493 0-.575-.581-.575-.581V15.44h-3.532v15.691c-.082.083-2.3 4.483-5.503 4.483-1.643 0-2.136-.913-2.136-1.91V15.442h-6.571v1.163h3.121V31.88s-.164 4.898 5.175 4.898c3.614 0 5.585-3.32 5.996-3.901v.083c-.082 1.909.575 3.154 1.561 3.154h4.928v-1.162l-2.464.166z" fill="#fff"/></g></symbol></svg>